<svg width="48" height="40" viewBox="0 0 48 40" xmlns="http://www.w3.org/2000/svg"><title>4DC493C3-F48B-4036-AEE8-4957E7766027</title><path d="M18.454 39.208a.516.516 0 0 1-.419-.504l-.004-.675c-.01-1.359-.02-2.764.008-4.148.01-.516-.165-.836-.647-1.18-.69-.49-.947-.747-1.243-1.046a14.155 14.155 0 0 0-.276-.272c-1.134-1.084-1.667-2.17-1.587-3.228.05-.651.368-.923.628-1.036.775-.34 1.872.353 3.28 1.495a6.794 6.794 0 0 0 2.18 1.214c2.631.846 5.508-.206 7.973-1.346.306-.142.591-.205.852-.19 1.03-2.066 1.403-4.865 1.456-6.114.004-.102.014-.224.025-.359.03-.352.107-1.289-.13-1.437-.293-.183-.86-.147-1.358-.117-.253.016-.492.03-.716.021a10.577 10.577 0 0 1-2.367-.36c-.104-.029-.218-.053-.336-.078a6.448 6.448 0 0 1-.56-.14 41.996 41.996 0 0 1-.37 1.859c-.147.688-.297 1.396-.351 1.813 1.06.405 1.687 1.303 1.771 2.598.065.964-.292 1.934-.951 2.592a2.896 2.896 0 0 1-2.308.832c-1.719-.131-3.014-1.478-3.014-3.132 0-1.728 1.37-3.133 3.052-3.133.154 0 .304.006.448.02.066-.463.207-1.12.353-1.807.176-.825.373-1.746.421-2.26-.493-.69-.285-1.77.057-2.38.438-.776 1.249-.838 1.842-.883l.058-.005c.764-.06 1.57-.174 2.615-.37.746-.14 1.528-.305 2.32-.518-1.201-.607-2.612-1.276-3.639-1.482-.239-.048-.48-.094-.721-.14-.01 0-.02-.003-.031-.005-.776-.144-1.56-.275-2.324-.403-2.611-.436-5.312-.887-7.85-1.89a15.995 15.995 0 0 1-5.077-3.236c-.4-.375-.776-.777-1.14-1.165-.195-.208-.39-.415-.587-.618l-.12-.125c-.172-.177-.333-.345-.505-.474-.855-.64-1.285-.51-1.535-.355-.277.173-.516.865-.485 1.235.053.61.473 1.239.857 1.815a18.603 18.603 0 0 0 3.075 3.552c.626.564 1.256 1.124 1.886 1.684l.11.097c.52.462 1.155 1.097 1.472 1.916.293.758.304 1.088.328 1.746l.006.158c.012.35-.127 1.271-.277 2.135l.288-.35c.259-.317.518-.631.78-.933l.173-.202c.153-.18.307-.36.474-.526.588-.587 1.209-.755 1.845-.501.664.265 1.069.826 1.14 1.58.056.577-.156 1.123-.328 1.563-.314.801-.82 1.64-1.546 2.567-.234.299-.475.591-.724.88-.423.488-.881.982-1.4 1.51-.098.1-.195.202-.295.307-.357.376-.725.765-1.162 1.067a3.163 3.163 0 0 1-.208.128c-.061.035-.154.089-.165.094L13.4 27.92a232.54 232.54 0 0 0-.153 3.125 131.06 131.06 0 0 1-.349 5.618.518.518 0 0 1-.244.397.508.508 0 0 1-.462.035C9.673 36.04 6.125 33.27 4.6 31.165a.523.523 0 0 1-.1-.313c.021-1.223.058-2.513.12-4.184.017-.464-.079-.73-.368-1.015-1.765-1.744-2.867-3.397-3.465-5.202-.348-1.051-.56-2.169-.644-3.416-.032-.474.111-.947.439-1.447a.515.515 0 0 1 .18-.168c1.078-.597 1.614-.455 2.208.58.238.416.46.843.679 1.27.22.428.45.87.692 1.289 1.336 2.306 2.704 3.43 4.573 3.759.306.054.683.069 1.15.045a4.596 4.596 0 0 0 1.425-.33c.679-.273 1.268-.707 1.807-1.217.19-.968.575-3.105.56-3.534l-.007-.16c-.022-.624-.028-.813-.259-1.408-.236-.612-.763-1.132-1.195-1.517l-.11-.096c-.63-.562-1.263-1.123-1.89-1.689a19.638 19.638 0 0 1-3.257-3.767c-.417-.625-.936-1.403-1.013-2.28-.051-.622.263-1.763.968-2.201.777-.483 1.678-.347 2.681.405.238.18.437.385.628.583l.116.12c.203.209.403.422.602.635.352.376.717.765 1.093 1.117.291.274.592.535.9.782-.036-.211-.078-.373-.116-.428-1.687-1.262-2.345-2.307-2.01-3.194.173-.461.48-.626.706-.683.67-.17 1.392.402 2.015.95.071.063.128.114.166.144.37.28.794.504 1.193.631.653.21 1.376.239 2.209.09a.494.494 0 0 1 .257.02c.661-1.683 2.374-2.983 4.215-2.983.884 0 1.74.308 2.43.862a8.475 8.475 0 0 1-.118-.955c-.022-.31.068-.615.276-.934a.508.508 0 0 1 .18-.168c.691-.384 1.13-.268 1.515.403.131.229.253.464.374.699.12.232.24.465.372.691.687 1.188 1.383 1.765 2.325 1.93.149.027.335.034.572.022.216-.011.473-.07.702-.163.704-.283 1.213-.905 1.752-1.563.144-.175.286-.349.432-.515l.095-.112c.086-.101.172-.202.266-.296.489-.485.95-.444 1.254-.323.438.175.718.56.766 1.056.036.373-.098.712-.194.957-.18.458-.465.935-.875 1.456a3.05 3.05 0 0 1-.125.147 3.968 3.968 0 0 1 3.117 3.882c0 2.188-1.767 3.968-3.938 3.968-2.17 0-3.935-1.78-3.935-3.968 0-2.006 1.481-3.668 3.4-3.932l.192-.205c.17-.181.427-.454.488-.532.346-.44.583-.831.724-1.195.063-.158.14-.354.128-.48-.013-.14-.067-.173-.145-.203 0 0-.043.009-.137.104-.074.073-.14.153-.209.232l-.106.124a19.73 19.73 0 0 0-.41.49c-.57.695-1.214 1.483-2.16 1.864a3.297 3.297 0 0 1-1.031.235 3.691 3.691 0 0 1-.8-.036c-1.604-.282-2.463-1.445-3.031-2.426-.14-.24-.268-.488-.396-.735a15.318 15.318 0 0 0-.352-.658 1.198 1.198 0 0 0-.03-.052.343.343 0 0 0-.037.161c.041.608.144 1.151.312 1.66.283.856.82 1.654 1.688 2.512.315.31.454.676.436 1.15-.024.645-.092 3.596-.119 4.87l.324.063c1.378.277 3.253 1.24 4.621 1.942l.232.119c1.267-.442 2.52-1.04 3.656-1.893 1.766-1.325 2.717-3.22 3.482-5.07l.248-.605c.393-.966.8-1.965 1.323-2.907.322-.582.88-.858 1.567-.779.593.07 1.017.435 1.259 1.088.192.517.191 1.041.161 1.53a19.067 19.067 0 0 1-.397 2.92 19.943 19.943 0 0 1-1.708 4.796c-.228.452-.5.877-.765 1.289-.433.677-.844 1.317-1.049 2.037-.075.264-.194 1.07-.208 3.518a2.676 2.676 0 0 1 1.106-.236c1.5 0 2.721 1.23 2.721 2.744 0 1.514-1.22 2.746-2.721 2.746-1.502 0-2.723-1.232-2.723-2.746 0-.645.222-1.239.593-1.708-.007-2.448.076-3.995.25-4.602.247-.866.717-1.601 1.173-2.312.261-.408.507-.793.712-1.197a18.928 18.928 0 0 0 1.62-4.548c.194-.896.32-1.826.375-2.763.026-.434.02-.788-.098-1.106-.135-.363-.275-.408-.419-.425-.338-.04-.47.1-.558.258-.492.888-.888 1.858-1.27 2.795l-.25.612c-.82 1.985-1.85 4.026-3.815 5.5-2.441 1.83-5.32 2.559-7.814 3.029a24.994 24.994 0 0 1-2.723.385l-.06.004c-.585.045-.878.095-1.03.365-.23.41-.317 1.087-.077 1.313l.002.001c.17.16.531.237.85.306.137.03.271.059.394.092.661.184 1.38.293 2.139.325.171.008.384-.006.611-.02.652-.04 1.39-.085 1.957.27.77.48.675 1.634.612 2.398-.01.118-.02.225-.022.315-.06 1.44-.467 4.376-1.598 6.6.148.3.098.644.07.842l-.014.103c-.06.525-.3 1.01-.692 1.403-.422.423-.864.811-1.324 1.162.3 1.203 1.113 2.894 1.721 4.156.153.316.293.61.415.87 2.926-.942 5.297-2.67 7.42-4.458l-.053-.061a.52.52 0 0 1-.127-.349c.017-.96.046-1.921.082-2.882.01-.273-.04-.413-.205-.576-1.233-1.217-2.003-2.374-2.423-3.641a9.532 9.532 0 0 1-.45-2.389c-.027-.364.08-.723.327-1.098a.519.519 0 0 1 .18-.168c.813-.449 1.282-.324 1.733.46.166.29.32.588.474.886.152.294.303.588.469.874.893 1.541 1.801 2.291 3.034 2.508.201.035.448.045.756.03.289-.015.628-.094.93-.216.923-.372 1.578-1.171 2.273-2.018.18-.22.358-.438.541-.647l.116-.135c.109-.13.218-.258.336-.374.452-.453.938-.582 1.44-.381.506.202.83.647.885 1.222.041.438-.12.85-.237 1.15-.222.567-.578 1.157-1.086 1.805-.162.208-.33.41-.503.61a21.8 21.8 0 0 1-.97 1.048c-.067.068-.133.138-.201.21-.251.264-.51.537-.824.754-.05.035-.103.065-.154.095l-.036.021c-.012.266-.02.589-.028.964-.032 1.34-.079 3.366-.366 5.917a.517.517 0 0 1-.242.381.505.505 0 0 1-.446.042c-1.331-.506-3.034-1.752-4.526-3.286-2.322 1.958-4.936 3.857-8.256 4.822a.511.511 0 0 1-.61-.288c-.146-.335-.354-.766-.587-1.251-.599-1.247-1.32-2.745-1.69-3.986-.526.331-1.072.618-1.634.86-.2.085-.162.816-.146 1.127.008.143.013.273.013.381-.008 1.12-.032 2.333-.073 3.71a.514.514 0 0 1-.467.498c-.75.067-1.43.098-2.076.098-1.445 0-2.924-.14-4.394-.417zm5.987-3.897c0-.09-.006-.2-.011-.319-.035-.66-.093-1.762.767-2.13 1.281-.55 2.468-1.365 3.526-2.424.228-.23.362-.496.397-.792l.018-.131c.008-.054.02-.134.022-.19-.106-.018-.265.038-.386.094-2.644 1.222-5.747 2.343-8.71 1.392a7.855 7.855 0 0 1-2.264-1.196c-.058-.043-.142-.112-.249-.198-1.637-1.33-2.11-1.385-2.205-1.372 0 0-.03.045-.04.19-.057.733.37 1.54 1.27 2.4.112.107.205.201.296.29.274.277.491.495 1.11.935.474.338 1.103.917 1.08 2.042-.028 1.37-.018 2.768-.008 4.12l.002.247c1.271.216 2.545.326 3.792.326.483 0 .99-.02 1.534-.058.032-1.181.051-2.24.059-3.226zM17.033 18.1c-.148.145-.281.304-.416.462l-.182.213c-.256.293-.507.6-.76.908-1.065 1.3-2.167 2.644-3.807 3.306-.57.23-1.193.372-1.755.401-.542.027-.993.008-1.375-.059-2.779-.488-4.281-2.53-5.281-4.255-.255-.44-.489-.894-.716-1.333-.213-.413-.426-.826-.657-1.228-.207-.36-.292-.414-.3-.42-.026.002-.122.01-.416.165-.154.262-.22.489-.206.702.08 1.16.274 2.193.594 3.16.544 1.644 1.565 3.167 3.212 4.793.493.487.7 1.04.673 1.79a202.31 202.31 0 0 0-.116 3.986c1.354 1.786 4.167 4.029 6.414 5.152.122-1.57.218-3.196.286-4.843.042-1.045.098-2.091.154-3.137l.071-1.354c.028-.562.45-.806.678-.937.047-.027.094-.054.137-.084.35-.241.681-.591 1.002-.93.103-.109.205-.216.307-.32.504-.511.948-.99 1.356-1.46.238-.276.47-.556.693-.842.663-.846 1.12-1.6 1.397-2.305.138-.353.294-.754.261-1.086-.034-.365-.198-.601-.498-.721a.51.51 0 0 0-.194-.044c-.136 0-.308.07-.556.32zm29.353 5.735a4.444 4.444 0 0 0-.276.31l-.126.146c-.175.201-.348.412-.522.623-.744.91-1.515 1.849-2.68 2.319a4.022 4.022 0 0 1-1.258.287c-.387.02-.707.005-.982-.043-1.975-.347-3.037-1.788-3.743-3.004-.174-.3-.333-.609-.493-.917a21.411 21.411 0 0 0-.452-.845 1.925 1.925 0 0 0-.12-.19 1.7 1.7 0 0 0-.12.055.65.65 0 0 0-.096.352c.053.786.185 1.483.4 2.134.367 1.106 1.056 2.134 2.169 3.231.375.37.532.786.511 1.352-.032.886-.06 1.774-.077 2.661a13.741 13.741 0 0 0 .281.307l.016.02c1.224 1.312 2.651 2.452 3.829 3.064.216-2.177.257-3.925.285-5.121.01-.428.018-.79.032-1.079.023-.474.375-.678.545-.776.028-.016.057-.033.083-.05.227-.157.449-.392.664-.619l.215-.223c.342-.347.644-.673.924-.996.161-.188.32-.379.473-.574.445-.568.752-1.074.937-1.545.088-.226.188-.48.17-.672-.024-.243-.135-.32-.244-.362a.18.18 0 0 0-.071-.018c-.057 0-.135.034-.274.173zM21.013 26.27c0 1.128.87 2.012 2.07 2.104.748.056 1.234-.26 1.51-.536.445-.445.696-1.132.652-1.793-.031-.464-.123-1.878-2.202-1.878-1.119 0-2.03.944-2.03 2.103zm19.012-4.527c-.014.017-.03.033-.044.048-.27.303-.434.704-.434 1.142a1.71 1.71 0 0 0 1.7 1.715c.937 0 1.7-.77 1.7-1.715a1.71 1.71 0 0 0-1.7-1.714c-.48 0-.912.201-1.222.524zM32.71 6.498a.416.416 0 0 1-.125.012 2.933 2.933 0 0 0-2.574 2.918c0 1.62 1.307 2.938 2.913 2.938 1.607 0 2.915-1.318 2.915-2.938S34.53 6.49 32.924 6.49a3.06 3.06 0 0 0-.214.008zm-7.047.377c-.275 2.465-2.006 4.188-4.207 4.188a4.18 4.18 0 0 1-2.919-1.187l-.015.09c-.032.19-.067.39-.101.598 2.017.627 4.13.98 6.188 1.323.582.098 1.174.196 1.767.302.029-1.323.092-4.074.116-4.72.007-.205-.032-.279-.13-.375a10.647 10.647 0 0 1-.673-.726c.002.169-.006.338-.026.507zm-8.419-.058c0-.154.01-.306.027-.457-.925.143-1.75.093-2.516-.153a5.2 5.2 0 0 1-1.494-.788 4.405 4.405 0 0 1-.227-.192c-.706-.622-.987-.738-1.059-.746 0 0-.015.017-.034.068-.083.219.175.887 1.663 2 .502.375.596 1.516.611 2.066a14.707 14.707 0 0 0 3.224 1.62l.075-.442c.072-.425.147-.86.171-1.085a4.254 4.254 0 0 1-.44-1.891zm1.023 0c0 1.773 1.43 3.216 3.19 3.216 1.663 0 2.975-1.347 3.191-3.274a3.096 3.096 0 0 0-.749-2.396 2.844 2.844 0 0 0-2.152-.98c-1.789 0-3.48 1.668-3.48 3.434zM6.405 18.009c0-2.03 1.328-3.422 3.308-3.461h.052c.901 0 1.865.461 2.525 1.214.597.68.862 1.504.745 2.32-.287 2.027-1.618 3.389-3.314 3.389-1.828 0-3.316-1.553-3.316-3.462zm3.328-2.43c-1.7.033-2.306 1.277-2.306 2.43 0 1.34 1.03 2.431 2.295 2.431 1.345 0 2.125-1.257 2.302-2.504.072-.512-.104-1.041-.5-1.491-.463-.53-1.152-.867-1.759-.867h-.032zM15.81 4.833c-1.19-.091-2.088-1.028-2.088-2.179 0-1.202.954-2.179 2.126-2.179 1.318 0 2.153.74 2.235 1.982a2.34 2.34 0 0 1-.661 1.793 2.01 2.01 0 0 1-1.612.583zm-1.065-2.18c0 .617.48 1.101 1.143 1.151a.999.999 0 0 0 .815-.287c.247-.246.385-.626.36-.993-.03-.474-.197-1.019-1.214-1.019-.609 0-1.104.516-1.104 1.149zm12.673-.51c0-1.223.834-2.093 2.029-2.116.555-.01 1.17.272 1.581.74.37.422.534.937.461 1.45-.174 1.223-.99 2.045-2.033 2.045-1.123-.001-2.038-.95-2.038-2.118zm2.048-1.086c-.642.013-1.026.419-1.026 1.087 0 .599.456 1.087 1.015 1.087.632 0 .945-.625 1.021-1.16.038-.268-.095-.486-.215-.622-.207-.236-.52-.392-.783-.392h-.012z" fill="#445C76" fill-rule="evenodd"/></svg>